#!OML:ASF E:\emotionWalksFemale\Project 1\Capture day 1\Session 1\Female1.ASF
:FULLY-SPECIFIED
:DEGREES
1611
root 8.72055 15.0335 -37.486 -3.20586 8.75469 -2.26576
lowerback 4.57302 1.10924 -0.386585
upperback -3.89275 1.47918 0.33169
thorax -6.63907 0.757435 0.410658
lowerneck -12.6516 -6.19747 -6.69784
upperneck 31.7367 -11.4857 12.2798
head 14.1176 -4.27056 4.26144
rclavicle 2.08227e-014 9.93923e-015
rhumerus -45.5273 23.0124 -102.267
rradius 31.3899
rwrist 18.1908
rhand -3.97237 -52.8628
rfingers 7.12502
rthumb 21.7805 -81.6573
lclavicle 2.08227e-014 9.93923e-015
lhumerus -41.6126 -4.4206 86.8712
lradius 34.8259
lwrist -16.574
lhand -5.39062 -33.6247
lfingers 7.12502
lthumb 20.4181 -4.67823
rfemur 1.47769 11.6631 35.3666
rtibia 27.1304
rfoot -25.7961 -30.2032
rtoes 9.38628
lfemur -16.093 -13.6942 -18.0398
ltibia 42.4599
lfoot -25.0108 -4.15295
ltoes -23.1536
1612
root 8.7044 15.0283 -37.4993 -3.22918 8.74278 -2.34456
lowerback 4.78809 1.12211 -0.481912
upperback -3.88129 1.49544 0.444931
thorax -6.75724 0.772843 0.576225
lowerneck -12.5904 -6.23725 -6.75317
upperneck 31.6322 -11.5199 12.2863
head 14.0658 -4.29672 4.26425
rclavicle 6.95746e-016 -1.31198e-014
rhumerus -45.467 23.1839 -102.204
rradius 31.2544
rwrist 18.7343
rhand -4.84063 -52.0134
rfingers 7.12502
rthumb 20.9465 -80.9024
lclavicle 6.95746e-016 -1.31198e-014
lhumerus -41.468 -4.3021 86.8987
lradius 34.7737
lwrist -16.5267
lhand -5.52341 -33.5625
lfingers 7.12502
lthumb 20.2905 -4.60238
rfemur 1.43246 11.6531 35.4973
rtibia 27.1105
rfoot -25.5901 -30.288
rtoes 9.41973
lfemur -16.2608 -13.6308 -17.8884
ltibia 42.7215
lfoot -25.0285 -4.04995
ltoes -23.7203
1613
root 8.69674 15.0311 -37.5031 -3.092 8.78537 -2.31122
lowerback 4.74328 1.11102 -0.514914
upperback -3.91088 1.47974 0.467499
thorax -6.76408 0.767472 0.620499
lowerneck -12.5879 -6.24566 -6.77027
upperneck 31.6085 -11.5284 12.2972
head 14.0579 -4.3017 4.26934
rclavicle 1.34677e-014 1.23246e-014
rhumerus -45.3558 23.1595 -102.081
rradius 31.4469
rwrist 18.2995
rhand -5.16597 -51.9275
rfingers 7.12502
rthumb 20.6339 -80.8507
lclavicle 1.34677e-014 1.23246e-014
lhumerus -41.4192 -4.18074 86.8891
lradius 34.792
lwrist -16.4588
lhand -5.62081 -33.442
lfingers 7.12502
lthumb 20.1968 -4.47194
rfemur 1.25412 11.6294 35.439
rtibia 27.0911
rfoot -25.4961 -30.2472
rtoes 9.54372
lfemur -16.5468 -13.5262 -17.8617
ltibia 42.9727
lfoot -24.9324 -3.92514
ltoes -23.6873
1614
root 8.69322 15.0333 -37.4991 -2.92631 8.68716 -2.23312
lowerback 4.58341 1.14557 -0.473315
upperback -3.96571 1.52561 0.396352
thorax -6.72744 0.786477 0.520775
lowerneck -12.5212 -6.25315 -6.76286
upperneck 31.5935 -11.5873 12.4259
head 14.0554 -4.31375 4.31256
rclavicle 1.97791e-014 1.63003e-014
rhumerus -45.2432 22.9182 -102.015
rradius 31.4828
rwrist 18.4568
rhand -6.03508 -51.2546
rfingers 7.12502
rthumb 19.7986 -80.2662
lclavicle 1.97791e-014 1.63003e-014
lhumerus -41.4799 -4.11497 86.7725
lradius 34.8636
lwrist -16.4881
lhand -5.60339 -33.2822
lfingers 7.12502
lthumb 20.2136 -4.31388
rfemur 1.09559 11.7197 35.3332
rtibia 27.0965
rfoot -25.4894 -30.1682
rtoes 9.46246
lfemur -16.8157 -13.3019 -17.8941
ltibia 43.213
lfoot -24.9003 -3.85165
ltoes -23.2715
1615
root 8.68586 15.0255 -37.5023 -3.11191 8.9465 -2.26094
lowerback 4.83653 1.07189 -0.417554
upperback -3.94809 1.42832 0.361078
thorax -6.8512 0.734703 0.458111
lowerneck -12.3982 -6.30044 -6.71111
upperneck 31.5491 -11.6934 12.4902
head 14.0249 -4.35218 4.31246
rclavicle 1.68967e-015 -1.55052e-014
rhumerus -45.0814 22.588 -101.857
rradius 31.4624
rwrist 18.75
rhand -6.19845 -50.9012
rfingers 7.12502
rthumb 19.6416 -79.9289
lclavicle 1.68967e-015 -1.55052e-014
lhumerus -41.5735 -4.09986 86.6819
lradius 34.9712
lwrist -16.5133
lhand -5.66442 -33.2265
lfingers 7.12502
lthumb 20.1549 -4.25206
rfemur 1.28969 11.6145 35.4551
rtibia 27.0646
rfoot -25.6381 -30.3228
rtoes 9.58246
lfemur -16.8549 -13.3683 -17.8856
ltibia 43.4447
lfoot -24.7468 -4.41036
ltoes -20.3747
1616
root 8.67635 15.0251 -37.5033 -3.04876 8.99718 -2.29992
lowerback 4.8252 1.06823 -0.344487
upperback -3.99172 1.427 0.321486
thorax -6.88806 0.729595 0.375705
lowerneck -12.2625 -6.32722 -6.65096
upperneck 31.5022 -11.7754 12.5708
head 13.988 -4.37774 4.3222
rclavicle -2.98177e-016 -9.93923e-015
rhumerus -44.9309 22.3092 -101.71
rradius 31.4316
rwrist 19.0696
rhand -5.898 -50.8935
rfingers 7.12502
rthumb 19.9304 -79.8915
lclavicle -2.98177e-016 -9.93923e-015
lhumerus -41.647 -3.97895 86.4903
lradius 35.0385
lwrist -16.5485
lhand -5.58254 -33.4503
lfingers 7.12502
lthumb 20.2336 -4.48412
rfemur 1.21738 11.6028 35.5222
rtibia 27.0163
rfoot -25.5131 -30.4152
rtoes 9.426
lfemur -17.1205 -13.3159 -17.7846
ltibia 43.6913
lfoot -24.4961 -5.03752
ltoes -16.4226
